<svg xmlns="http://www.w3.org/2000/svg" version="1.1" xmlns:xlink="http://www.w3.org/1999/xlink" xmlns:svgjs="http://svgjs.dev/svgjs" width="1000" height="275" viewBox="0 0 1000 275"><g transform="matrix(1,0,0,1,-0.6060606060606233,0.1976895189563379)"><svg viewBox="0 0 396 109" data-background-color="#ffffff" preserveAspectRatio="xMidYMid meet" height="275" width="1000" xmlns="http://www.w3.org/2000/svg" xmlns:xlink="http://www.w3.org/1999/xlink"><g id="tight-bounds" transform="matrix(1,0,0,1,0.2400000000000091,-0.07835693660450715)"><svg viewBox="0 0 395.52 109.15671387320903" height="109.15671387320903" width="395.52"><g><svg viewBox="0 0 395.52 109.15671387320903" height="109.15671387320903" width="395.52"><g><svg viewBox="0 0 395.52 109.15671387320903" height="109.15671387320903" width="395.52"><g id="textblocktransform"><svg viewBox="0 0 395.52 109.15671387320903" height="109.15671387320903" width="395.52" id="textblock"><g><rect width="395.52" height="85.49796506378803" fill="none" stroke-width="9.018103199999999" stroke="#1e55b3" data-fill-palette-color="none" data-stroke-palette-color="tertiary"></rect><rect width="395.52" height="23.658748809421" y="85.49796506378803" fill="#1e55b3" data-fill-palette-color="tertiary"></rect></g><g><svg viewBox="0 0 395.52 85.49796506378803" height="85.49796506378803" width="395.52"><g transform="matrix(1,0,0,1,23.607599999999998,23.607599999999998)"><svg width="348.3048" viewBox="7.809999942779541 -35.060001373291016 323.3900146484375 35.55000305175781" height="38.28276506378803" data-palette-color="#1e55b3"><path d="M7.81 0L7.81-34.69 11.96-34.69 11.96 0 7.81 0ZM24.9 0L24.9-34.69 30.76-34.69 41.89-13.65 53.2-34.69 58.69-34.69 58.69 0 54.54 0 54.54-28.74 43.87-9.94 39.72-9.94 29.05-28.74 29.05 0 24.9 0ZM66.99 0L79.32-34.69 84.03-34.69 96.36 0 92.16 0 88.64-10.08 74.34-10.08 70.82 0 66.99 0ZM87.37-13.72L81.49-30.64 75.58-13.72 87.37-13.72ZM120.01-34.96L120.01-34.96Q125.87-34.96 131.17-32.01L131.17-32.01 129.53-28.91Q127.68-29.88 125.21-30.59 122.75-31.3 120.23-31.3L120.23-31.3Q117.67-31.3 115.29-30.35 112.91-29.39 111.05-27.67 109.2-25.95 108.09-23.33 106.97-20.7 106.97-17.58L106.97-17.58Q106.97-13.45 108.81-10.16 110.64-6.86 113.86-5.03 117.08-3.2 121.06-3.2L121.06-3.2Q125.77-3.2 128.73-6.03L128.73-6.03 128.73-14.89 118.86-14.89 118.86-18.31 132.76-18.31 132.76-4.69Q132.1-3.93 131.23-3.22 130.36-2.51 128.81-1.59 127.26-0.66 124.99-0.09 122.72 0.49 120.09 0.49L120.09 0.49Q116.62 0.49 113.7-0.55 110.78-1.59 108.81-3.32 106.83-5.05 105.46-7.36 104.09-9.67 103.46-12.18 102.82-14.7 102.82-17.31L102.82-17.31Q102.82-20.04 103.52-22.62 104.22-25.2 105.66-27.44 107.1-29.69 109.11-31.36 111.13-33.03 113.93-34 116.74-34.96 120.01-34.96ZM144.23 0L144.23-34.69 148.38-34.69 148.38 0 144.23 0ZM161.32 0L161.32-34.69 166.56-34.69 185.46-5.66 185.46-34.69 189.61-34.69 189.61 0 184.36 0 165.47-29.08 165.47 0 161.32 0ZM197.91 0L210.24-34.69 214.95-34.69 227.28 0 223.08 0 219.57-10.08 205.26-10.08 201.74 0 197.91 0ZM218.3-13.72L212.41-30.64 206.5-13.72 218.3-13.72ZM230.57-31.03L230.57-34.69 257.92-34.69 257.92-31.03 246.32-31.03 246.32 0 242.17 0 242.17-31.03 230.57-31.03ZM279.62-35.06L279.62-35.06Q283.06-35.06 286.05-33.85 289.04-32.64 291.23-30.44 293.41-28.25 294.66-24.96 295.9-21.68 295.9-17.75L295.9-17.75Q295.9-12.43 293.79-8.29 291.68-4.15 287.93-1.89 284.18 0.37 279.45 0.37L279.45 0.37Q276.32 0.37 273.47-0.74 270.61-1.86 268.31-3.98 266.02-6.1 264.65-9.53 263.29-12.96 263.29-17.26L263.29-17.26Q263.29-21.29 264.53-24.63 265.78-27.98 267.95-30.26 270.12-32.54 273.12-33.8 276.13-35.06 279.62-35.06ZM279.4-31.42L279.4-31.42Q277.18-31.42 275.13-30.59 273.08-29.76 271.35-28.16 269.63-26.56 268.6-23.86 267.56-21.17 267.56-17.77L267.56-17.77Q267.56-14.53 268.51-11.78 269.46-9.03 271.1-7.18 272.73-5.32 274.97-4.3 277.2-3.27 279.77-3.27L279.77-3.27Q281.5-3.27 283.17-3.78 284.84-4.3 286.38-5.41 287.92-6.52 289.08-8.13 290.24-9.74 290.93-12.11 291.63-14.48 291.63-17.31L291.63-17.31Q291.63-20.19 290.9-22.58 290.17-24.98 288.96-26.59 287.75-28.2 286.15-29.31 284.55-30.42 282.85-30.92 281.16-31.42 279.4-31.42ZM329.18-25.17L329.18-25.17Q329.18-23.44 328.76-21.88 328.35-20.31 327.47-18.9 326.59-17.48 325.04-16.44 323.49-15.41 321.41-14.92L321.41-14.92 331.2 0 326.56 0 317.17-14.45 310.45-14.45 310.45 0 306.28 0 306.28-34.69 319.02-34.69Q319.9-34.69 320.61-34.64 321.32-34.59 322.43-34.39 323.54-34.18 324.39-33.83 325.25-33.47 326.19-32.75 327.13-32.03 327.75-31.05 328.37-30.08 328.77-28.56 329.18-27.05 329.18-25.17ZM310.45-31.05L310.45-18.12 316.43-18.12Q317.68-18.12 318.63-18.2 319.58-18.29 320.86-18.66 322.15-19.04 322.99-19.71 323.83-20.39 324.43-21.67 325.03-22.95 325.03-24.71L325.03-24.71Q325.03-25.95 324.71-26.95 324.39-27.95 323.9-28.6 323.42-29.25 322.71-29.72 322-30.2 321.34-30.44 320.68-30.69 319.87-30.83 319.07-30.98 318.54-31.02 318.02-31.05 317.43-31.05L317.43-31.05 310.45-31.05Z" opacity="1" transform="matrix(1,0,0,1,0,0)" fill="#1e55b3" class="undefined-text-0" data-fill-palette-color="primary" id="text-0"></path></svg></g></svg></g></svg></g></svg></g><g></g></svg></g><defs></defs></svg><rect width="395.52" height="109.15671387320903" fill="none" stroke="none" visibility="hidden"></rect></g></svg></g></svg>